<svg xmlns="http://www.w3.org/2000/svg" width="48" height="46.8" viewBox="0 0 48 46.8">
  <g id="Layer_2" data-name="Layer 2" transform="translate(-11.692 -11.4)">
    <g id="Surfaces" transform="translate(11.692 11.4)">
      <g id="Drawing_Surface" data-name="Drawing Surface">
        <g id="Outline_no_shadow" data-name="Outline no shadow">
          <rect id="Rectangle_150919" data-name="Rectangle 150919" width="48" height="46.8" rx="5.667" fill="#300"/>
        </g>
      </g>
    </g>
    <g id="Outlined_Mnemonics_Logos" data-name="Outlined Mnemonics Logos" transform="translate(21.599 21.775)">
      <g id="Ai">
        <path id="Path_102603" data-name="Path 102603" d="M31.65,35.491H24.211l-1.514,4.7a.377.377,0,0,1-.385.29H18.544c-.215,0-.29-.118-.225-.354l6.44-18.548c.064-.194.129-.412.193-.66a6.907,6.907,0,0,0,.129-1.3.2.2,0,0,1,.17-.227.343.343,0,0,1,.056,0h5.12c.15,0,.237.054.258.162l7.31,20.607c.065.216,0,.322-.194.322H33.613a.3.3,0,0,1-.321-.225Zm-6.279-4.058h5.088q-.194-.644-.451-1.449c-.171-.537-.354-1.11-.548-1.723s-.386-1.223-.579-1.835-.37-1.2-.531-1.771-.306-1.089-.435-1.562h-.033a25.787,25.787,0,0,1-.675,2.576q-.452,1.449-.918,2.963t-.918,2.8Z" transform="translate(-18.297 -17.78)" fill="#ff9a00"/>
        <path id="Path_102604" data-name="Path 102604" d="M35.143,23.341a2.335,2.335,0,0,1-1.772-.708,2.553,2.553,0,0,1-.676-1.836,2.359,2.359,0,0,1,.724-1.787,2.493,2.493,0,0,1,1.788-.693,2.389,2.389,0,0,1,1.818.693,2.482,2.482,0,0,1,.661,1.787,2.518,2.518,0,0,1-.693,1.836A2.472,2.472,0,0,1,35.143,23.341ZM32.92,40.7V25.3c0-.192.085-.29.258-.29h3.962c.171,0,.256.1.256.29V40.7c0,.216-.085.322-.256.322H33.211C33.017,41.018,32.92,40.912,32.92,40.7Z" transform="translate(-11.099 -18.316)" fill="#ff9a00"/>
      </g>
    </g>
  </g>
</svg>
